<svg xmlns="http://www.w3.org/2000/svg" width="64" height="64" fill="none" viewBox="0 0 64 64"><g clip-path="url(#book__a)"><path fill="url(#book__b)" d="M61.713 15.475a2.293 2.293 0 0 1 2.291 2.29v36.398c0 .697-.314 1.35-.86 1.788a2.293 2.293 0 0 1-1.943.442c-5.485-1.251-15.114-2.704-24.247-.467 5.284-4.999 12.736-5.882 17.258-5.895 3.222-.006 5.84-2.627 5.84-5.843V15.475h1.66Zm-57.76 0v28.713c0 3.216 2.62 5.837 5.84 5.843 4.521.013 11.977.896 17.257 5.895-9.13-2.237-18.758-.784-24.243.467a2.279 2.279 0 0 1-1.942-.445 2.274 2.274 0 0 1-.861-1.789V17.766a2.292 2.292 0 0 1 2.288-2.291h1.66Zm5.84-7.92c5.344.012 15.062 1.25 20.118 9.395.205.333.314.733.314 1.158v35.94c-6.16-6.449-15.091-7.56-20.423-7.572a2.296 2.296 0 0 1-2.29-2.288V9.846c0-.615.236-1.19.671-1.626a2.256 2.256 0 0 1 1.607-.665h.003Zm44.425 0c.605 0 1.175.236 1.607.665.432.435.672 1.011.672 1.626v34.342a2.297 2.297 0 0 1-2.291 2.288c-5.332.013-14.263 1.123-20.426 7.571V18.108c0-.425.112-.825.317-1.158 5.056-8.144 14.774-9.383 20.118-9.395h.003Z"/></g><defs><linearGradient id="book__b" x1="32.004" x2="32.004" y1="7.555" y2="56.451" gradientUnits="userSpaceOnUse"><stop stop-color="#76A5FF"/><stop offset="0" stop-color="#55BAFF"/><stop offset="1" stop-color="#028CEB"/></linearGradient><clipPath id="book__a"><path fill="#fff" d="M0 0h64v64H0z"/></clipPath></defs></svg>